<svg xmlns="http://www.w3.org/2000/svg" xmlns:xlink="http://www.w3.org/1999/xlink" width="1080" zoomAndPan="magnify" viewBox="0 0 810 809.999993" height="1080" preserveAspectRatio="xMidYMid meet" version="1.0"><defs><g/></defs><g fill="#ffffff" fill-opacity="1"><g transform="translate(119.69531, 445.499998)"><g><path d="M 72.28125 -55.421875 C 72.28125 -50.390625 71.117188 -45.804688 68.796875 -41.671875 C 66.472656 -37.546875 62.972656 -34.242188 58.296875 -31.765625 C 53.628906 -29.296875 47.914062 -28.0625 41.15625 -28.0625 L 29.71875 -28.0625 L 29.71875 0 L 6.609375 0 L 6.609375 -83.125 L 41.15625 -83.125 C 47.832031 -83.125 53.507812 -81.941406 58.1875 -79.578125 C 62.863281 -77.222656 66.378906 -73.960938 68.734375 -69.796875 C 71.097656 -65.628906 72.28125 -60.835938 72.28125 -55.421875 Z M 38.90625 -46.453125 C 45.4375 -46.453125 48.703125 -49.441406 48.703125 -55.421875 C 48.703125 -61.472656 45.4375 -64.5 38.90625 -64.5 L 29.71875 -64.5 L 29.71875 -46.453125 Z M 38.90625 -46.453125 "/></g></g></g><g fill="#ffffff" fill-opacity="1"><g transform="translate(194.673723, 445.499998)"><g><path d="M 29.71875 -54.46875 C 32.3125 -58.238281 35.453125 -61.222656 39.140625 -63.421875 C 42.835938 -65.628906 46.804688 -66.734375 51.046875 -66.734375 L 51.046875 -42.09375 L 44.5625 -42.09375 C 39.53125 -42.09375 35.796875 -41.109375 33.359375 -39.140625 C 30.929688 -37.179688 29.71875 -33.765625 29.71875 -28.890625 L 29.71875 0 L 6.609375 0 L 6.609375 -66.140625 L 29.71875 -66.140625 Z M 29.71875 -54.46875 "/></g></g></g><g fill="#ffffff" fill-opacity="1"><g transform="translate(247.370822, 445.499998)"><g><path d="M 37.375 0.828125 C 30.769531 0.828125 24.851562 -0.546875 19.625 -3.296875 C 14.40625 -6.046875 10.300781 -9.972656 7.3125 -15.078125 C 4.320312 -20.191406 2.828125 -26.207031 2.828125 -33.125 C 2.828125 -39.96875 4.335938 -45.941406 7.359375 -51.046875 C 10.390625 -56.160156 14.519531 -60.09375 19.75 -62.84375 C 24.976562 -65.59375 30.894531 -66.96875 37.5 -66.96875 C 44.09375 -66.96875 50.003906 -65.59375 55.234375 -62.84375 C 60.460938 -60.09375 64.585938 -56.160156 67.609375 -51.046875 C 70.640625 -45.941406 72.15625 -39.96875 72.15625 -33.125 C 72.15625 -26.289062 70.640625 -20.296875 67.609375 -15.140625 C 64.585938 -9.992188 60.441406 -6.046875 55.171875 -3.296875 C 49.910156 -0.546875 43.976562 0.828125 37.375 0.828125 Z M 37.375 -19.21875 C 40.59375 -19.21875 43.285156 -20.414062 45.453125 -22.8125 C 47.617188 -25.207031 48.703125 -28.644531 48.703125 -33.125 C 48.703125 -37.613281 47.617188 -41.035156 45.453125 -43.390625 C 43.285156 -45.742188 40.632812 -46.921875 37.5 -46.921875 C 34.351562 -46.921875 31.71875 -45.742188 29.59375 -43.390625 C 27.46875 -41.035156 26.40625 -37.613281 26.40625 -33.125 C 26.40625 -28.570312 27.425781 -25.113281 29.46875 -22.75 C 31.519531 -20.394531 34.15625 -19.21875 37.375 -19.21875 Z M 37.375 -19.21875 "/></g></g></g><g fill="#ffffff" fill-opacity="1"><g transform="translate(322.349246, 445.499998)"><g><path d="M 42.328125 -46.921875 L 31.953125 -46.921875 L 31.953125 0 L 8.71875 0 L 8.71875 -46.921875 L 1.53125 -46.921875 L 1.53125 -66.140625 L 8.71875 -66.140625 L 8.71875 -66.734375 C 8.71875 -75.222656 11.210938 -81.726562 16.203125 -86.25 C 21.203125 -90.769531 28.378906 -93.03125 37.734375 -93.03125 C 39.617188 -93.03125 41.070312 -92.988281 42.09375 -92.90625 L 42.09375 -73.21875 C 41.46875 -73.300781 40.601562 -73.34375 39.5 -73.34375 C 36.976562 -73.34375 35.128906 -72.769531 33.953125 -71.625 C 32.773438 -70.488281 32.109375 -68.660156 31.953125 -66.140625 L 42.328125 -66.140625 Z M 42.328125 -46.921875 "/></g></g></g><g fill="#ffffff" fill-opacity="1"><g transform="translate(366.322433, 445.499998)"><g><path d="M 69.796875 -33.84375 C 69.796875 -32.03125 69.679688 -30.222656 69.453125 -28.421875 L 25.703125 -28.421875 C 25.941406 -24.796875 26.941406 -22.097656 28.703125 -20.328125 C 30.472656 -18.566406 32.734375 -17.6875 35.484375 -17.6875 C 39.335938 -17.6875 42.09375 -19.414062 43.75 -22.875 L 68.390625 -22.875 C 67.367188 -18.3125 65.382812 -14.242188 62.4375 -10.671875 C 59.488281 -7.097656 55.769531 -4.285156 51.28125 -2.234375 C 46.800781 -0.191406 41.851562 0.828125 36.4375 0.828125 C 29.90625 0.828125 24.101562 -0.546875 19.03125 -3.296875 C 13.96875 -6.046875 10 -9.972656 7.125 -15.078125 C 4.257812 -20.191406 2.828125 -26.207031 2.828125 -33.125 C 2.828125 -40.039062 4.238281 -46.035156 7.0625 -51.109375 C 9.894531 -56.179688 13.847656 -60.09375 18.921875 -62.84375 C 23.992188 -65.59375 29.832031 -66.96875 36.4375 -66.96875 C 42.957031 -66.96875 48.734375 -65.628906 53.765625 -62.953125 C 58.796875 -60.285156 62.722656 -56.457031 65.546875 -51.46875 C 68.378906 -46.476562 69.796875 -40.601562 69.796875 -33.84375 Z M 46.21875 -39.609375 C 46.21875 -42.441406 45.273438 -44.664062 43.390625 -46.28125 C 41.503906 -47.894531 39.144531 -48.703125 36.3125 -48.703125 C 33.488281 -48.703125 31.171875 -47.929688 29.359375 -46.390625 C 27.546875 -44.859375 26.367188 -42.597656 25.828125 -39.609375 Z M 46.21875 -39.609375 "/></g></g></g><g fill="#ffffff" fill-opacity="1"><g transform="translate(438.94302, 445.499998)"><g><path d="M 29.71875 -17.6875 L 55.53125 -17.6875 L 55.53125 0 L 6.609375 0 L 6.609375 -83.125 L 29.71875 -83.125 Z M 29.71875 -17.6875 "/></g></g></g><g fill="#ffffff" fill-opacity="1"><g transform="translate(496.827325, 445.499998)"><g><path d="M 18.28125 -72.28125 C 14.1875 -72.28125 10.898438 -73.398438 8.421875 -75.640625 C 5.953125 -77.878906 4.71875 -80.6875 4.71875 -84.0625 C 4.71875 -87.519531 5.953125 -90.390625 8.421875 -92.671875 C 10.898438 -94.953125 14.1875 -96.09375 18.28125 -96.09375 C 22.28125 -96.09375 25.519531 -94.953125 28 -92.671875 C 30.476562 -90.390625 31.71875 -87.519531 31.71875 -84.0625 C 31.71875 -80.6875 30.476562 -77.878906 28 -75.640625 C 25.519531 -73.398438 22.28125 -72.28125 18.28125 -72.28125 Z M 29.71875 -66.140625 L 29.71875 0 L 6.609375 0 L 6.609375 -66.140625 Z M 29.71875 -66.140625 "/></g></g></g><g fill="#ffffff" fill-opacity="1"><g transform="translate(533.137641, 445.499998)"><g><path d="M 49.875 -66.734375 C 57.5 -66.734375 63.550781 -64.195312 68.03125 -59.125 C 72.507812 -54.0625 74.75 -47.207031 74.75 -38.5625 L 74.75 0 L 51.640625 0 L 51.640625 -35.484375 C 51.640625 -39.265625 50.65625 -42.234375 48.6875 -44.390625 C 46.726562 -46.554688 44.097656 -47.640625 40.796875 -47.640625 C 37.335938 -47.640625 34.625 -46.554688 32.65625 -44.390625 C 30.695312 -42.234375 29.71875 -39.265625 29.71875 -35.484375 L 29.71875 0 L 6.609375 0 L 6.609375 -66.140625 L 29.71875 -66.140625 L 29.71875 -56.71875 C 31.757812 -59.695312 34.507812 -62.109375 37.96875 -63.953125 C 41.425781 -65.804688 45.394531 -66.734375 49.875 -66.734375 Z M 49.875 -66.734375 "/></g></g></g><g fill="#ffffff" fill-opacity="1"><g transform="translate(614.010561, 445.499998)"><g><path d="M 47.984375 0 L 29.71875 -27.125 L 29.71875 0 L 6.609375 0 L 6.609375 -87.25 L 29.71875 -87.25 L 29.71875 -40.203125 L 47.984375 -66.140625 L 75.703125 -66.140625 L 49.640625 -32.890625 L 76.171875 0 Z M 47.984375 0 "/></g></g></g><g fill="#ffffff" fill-opacity="1"><g transform="translate(226.86213, 476.899196)"><g><path d="M 18.4375 -17.4375 C 18.4375 -15.332031 17.75 -13.640625 16.375 -12.359375 C 15 -11.078125 12.9375 -10.4375 10.1875 -10.4375 L 5.25 -10.4375 L 5.25 0 L 2.796875 0 L 2.796875 -24.46875 L 10.1875 -24.46875 C 12.914062 -24.46875 14.972656 -23.820312 16.359375 -22.53125 C 17.742188 -21.25 18.4375 -19.550781 18.4375 -17.4375 Z M 10.1875 -12.53125 C 14.007812 -12.53125 15.921875 -14.164062 15.921875 -17.4375 C 15.921875 -19.0625 15.460938 -20.296875 14.546875 -21.140625 C 13.640625 -21.984375 12.1875 -22.40625 10.1875 -22.40625 L 5.25 -22.40625 L 5.25 -12.53125 Z M 10.1875 -12.53125 "/></g></g></g><g fill="#ffffff" fill-opacity="1"><g transform="translate(249.327671, 476.899196)"><g><path d="M 5.25 -25.90625 L 5.25 0 L 2.796875 0 L 2.796875 -25.90625 Z M 5.25 -25.90625 "/></g></g></g><g fill="#ffffff" fill-opacity="1"><g transform="translate(260.070858, 476.899196)"><g><path d="M 1.6875 -9.59375 C 1.6875 -11.550781 2.078125 -13.269531 2.859375 -14.75 C 3.640625 -16.226562 4.722656 -17.367188 6.109375 -18.171875 C 7.492188 -18.984375 9.0625 -19.390625 10.8125 -19.390625 C 12.632812 -19.390625 14.203125 -18.96875 15.515625 -18.125 C 16.835938 -17.289062 17.789062 -16.21875 18.375 -14.90625 L 18.375 -19.109375 L 20.828125 -19.109375 L 20.828125 0 L 18.375 0 L 18.375 -4.234375 C 17.769531 -2.929688 16.804688 -1.851562 15.484375 -1 C 14.171875 -0.144531 12.601562 0.28125 10.78125 0.28125 C 9.050781 0.28125 7.492188 -0.125 6.109375 -0.9375 C 4.722656 -1.757812 3.640625 -2.914062 2.859375 -4.40625 C 2.078125 -5.90625 1.6875 -7.632812 1.6875 -9.59375 Z M 18.375 -9.5625 C 18.375 -11.09375 18.054688 -12.441406 17.421875 -13.609375 C 16.796875 -14.773438 15.941406 -15.671875 14.859375 -16.296875 C 13.773438 -16.929688 12.578125 -17.25 11.265625 -17.25 C 9.910156 -17.25 8.695312 -16.945312 7.625 -16.34375 C 6.550781 -15.738281 5.707031 -14.859375 5.09375 -13.703125 C 4.476562 -12.546875 4.171875 -11.175781 4.171875 -9.59375 C 4.171875 -8.03125 4.476562 -6.65625 5.09375 -5.46875 C 5.707031 -4.289062 6.550781 -3.394531 7.625 -2.78125 C 8.695312 -2.164062 9.910156 -1.859375 11.265625 -1.859375 C 12.578125 -1.859375 13.773438 -2.171875 14.859375 -2.796875 C 15.941406 -3.429688 16.796875 -4.332031 17.421875 -5.5 C 18.054688 -6.664062 18.375 -8.019531 18.375 -9.5625 Z M 18.375 -9.5625 "/></g></g></g><g fill="#ffffff" fill-opacity="1"><g transform="translate(286.420523, 476.899196)"><g><path d="M 5.984375 -17.046875 L 5.984375 -5.1875 C 5.984375 -4.019531 6.203125 -3.210938 6.640625 -2.765625 C 7.085938 -2.316406 7.875 -2.09375 9 -2.09375 L 11.234375 -2.09375 L 11.234375 0 L 8.609375 0 C 6.878906 0 5.59375 -0.398438 4.75 -1.203125 C 3.914062 -2.015625 3.5 -3.34375 3.5 -5.1875 L 3.5 -17.046875 L 0.84375 -17.046875 L 0.84375 -19.109375 L 3.5 -19.109375 L 3.5 -23.90625 L 5.984375 -23.90625 L 5.984375 -19.109375 L 11.234375 -19.109375 L 11.234375 -17.046875 Z M 5.984375 -17.046875 "/></g></g></g><g fill="#ffffff" fill-opacity="1"><g transform="translate(301.607713, 476.899196)"><g><path d="M 1.6875 -9.59375 C 1.6875 -11.550781 2.078125 -13.269531 2.859375 -14.75 C 3.640625 -16.226562 4.722656 -17.367188 6.109375 -18.171875 C 7.492188 -18.984375 9.0625 -19.390625 10.8125 -19.390625 C 12.632812 -19.390625 14.203125 -18.96875 15.515625 -18.125 C 16.835938 -17.289062 17.789062 -16.21875 18.375 -14.90625 L 18.375 -19.109375 L 20.828125 -19.109375 L 20.828125 0 L 18.375 0 L 18.375 -4.234375 C 17.769531 -2.929688 16.804688 -1.851562 15.484375 -1 C 14.171875 -0.144531 12.601562 0.28125 10.78125 0.28125 C 9.050781 0.28125 7.492188 -0.125 6.109375 -0.9375 C 4.722656 -1.757812 3.640625 -2.914062 2.859375 -4.40625 C 2.078125 -5.90625 1.6875 -7.632812 1.6875 -9.59375 Z M 18.375 -9.5625 C 18.375 -11.09375 18.054688 -12.441406 17.421875 -13.609375 C 16.796875 -14.773438 15.941406 -15.671875 14.859375 -16.296875 C 13.773438 -16.929688 12.578125 -17.25 11.265625 -17.25 C 9.910156 -17.25 8.695312 -16.945312 7.625 -16.34375 C 6.550781 -15.738281 5.707031 -14.859375 5.09375 -13.703125 C 4.476562 -12.546875 4.171875 -11.175781 4.171875 -9.59375 C 4.171875 -8.03125 4.476562 -6.65625 5.09375 -5.46875 C 5.707031 -4.289062 6.550781 -3.394531 7.625 -2.78125 C 8.695312 -2.164062 9.910156 -1.859375 11.265625 -1.859375 C 12.578125 -1.859375 13.773438 -2.171875 14.859375 -2.796875 C 15.941406 -3.429688 16.796875 -4.332031 17.421875 -5.5 C 18.054688 -6.664062 18.375 -8.019531 18.375 -9.5625 Z M 18.375 -9.5625 "/></g></g></g><g fill="#ffffff" fill-opacity="1"><g transform="translate(327.957379, 476.899196)"><g><path d="M 10.328125 -17.046875 L 5.875 -17.046875 L 5.875 0 L 3.4375 0 L 3.4375 -17.046875 L 0.765625 -17.046875 L 0.765625 -19.109375 L 3.4375 -19.109375 L 3.4375 -20.4375 C 3.4375 -22.519531 3.960938 -24.050781 5.015625 -25.03125 C 6.078125 -26.007812 7.800781 -26.5 10.1875 -26.5 L 10.1875 -24.390625 C 8.601562 -24.390625 7.488281 -24.085938 6.84375 -23.484375 C 6.195312 -22.878906 5.875 -21.863281 5.875 -20.4375 L 5.875 -19.109375 L 10.328125 -19.109375 Z M 10.328125 -17.046875 "/></g></g></g><g fill="#ffffff" fill-opacity="1"><g transform="translate(342.059807, 476.899196)"><g><path d="M 11.171875 0.28125 C 9.367188 0.28125 7.75 -0.117188 6.3125 -0.921875 C 4.882812 -1.734375 3.753906 -2.878906 2.921875 -4.359375 C 2.097656 -5.835938 1.6875 -7.570312 1.6875 -9.5625 C 1.6875 -11.539062 2.101562 -13.269531 2.9375 -14.75 C 3.78125 -16.226562 4.925781 -17.367188 6.375 -18.171875 C 7.820312 -18.984375 9.441406 -19.390625 11.234375 -19.390625 C 13.035156 -19.390625 14.664062 -18.984375 16.125 -18.171875 C 17.582031 -17.367188 18.722656 -16.226562 19.546875 -14.75 C 20.378906 -13.269531 20.796875 -11.539062 20.796875 -9.5625 C 20.796875 -7.59375 20.375 -5.863281 19.53125 -4.375 C 18.6875 -2.882812 17.53125 -1.734375 16.0625 -0.921875 C 14.59375 -0.117188 12.960938 0.28125 11.171875 0.28125 Z M 11.171875 -1.859375 C 12.429688 -1.859375 13.597656 -2.140625 14.671875 -2.703125 C 15.742188 -3.273438 16.609375 -4.140625 17.265625 -5.296875 C 17.929688 -6.453125 18.265625 -7.875 18.265625 -9.5625 C 18.265625 -11.238281 17.9375 -12.65625 17.28125 -13.8125 C 16.632812 -14.96875 15.773438 -15.828125 14.703125 -16.390625 C 13.628906 -16.960938 12.460938 -17.25 11.203125 -17.25 C 9.941406 -17.25 8.773438 -16.960938 7.703125 -16.390625 C 6.628906 -15.828125 5.769531 -14.96875 5.125 -13.8125 C 4.488281 -12.65625 4.171875 -11.238281 4.171875 -9.5625 C 4.171875 -7.875 4.488281 -6.453125 5.125 -5.296875 C 5.769531 -4.140625 6.625 -3.273438 7.6875 -2.703125 C 8.75 -2.140625 9.910156 -1.859375 11.171875 -1.859375 Z M 11.171875 -1.859375 "/></g></g></g><g fill="#ffffff" fill-opacity="1"><g transform="translate(367.254728, 476.899196)"><g><path d="M 5.25 -15.71875 C 5.789062 -16.90625 6.613281 -17.820312 7.71875 -18.46875 C 8.820312 -19.125 10.179688 -19.453125 11.796875 -19.453125 L 11.796875 -16.90625 L 11.125 -16.90625 C 9.351562 -16.90625 7.929688 -16.425781 6.859375 -15.46875 C 5.785156 -14.507812 5.25 -12.910156 5.25 -10.671875 L 5.25 0 L 2.796875 0 L 2.796875 -19.109375 L 5.25 -19.109375 Z M 5.25 -15.71875 "/></g></g></g><g fill="#ffffff" fill-opacity="1"><g transform="translate(382.651872, 476.899196)"><g><path d="M 25.546875 -19.453125 C 27.785156 -19.453125 29.609375 -18.742188 31.015625 -17.328125 C 32.429688 -15.921875 33.140625 -13.878906 33.140625 -11.203125 L 33.140625 0 L 30.734375 0 L 30.734375 -10.921875 C 30.734375 -12.992188 30.226562 -14.578125 29.21875 -15.671875 C 28.21875 -16.773438 26.851562 -17.328125 25.125 -17.328125 C 23.332031 -17.328125 21.898438 -16.726562 20.828125 -15.53125 C 19.753906 -14.34375 19.21875 -12.617188 19.21875 -10.359375 L 19.21875 0 L 16.796875 0 L 16.796875 -10.921875 C 16.796875 -12.992188 16.296875 -14.578125 15.296875 -15.671875 C 14.296875 -16.773438 12.921875 -17.328125 11.171875 -17.328125 C 9.367188 -17.328125 7.929688 -16.726562 6.859375 -15.53125 C 5.785156 -14.34375 5.25 -12.617188 5.25 -10.359375 L 5.25 0 L 2.796875 0 L 2.796875 -19.109375 L 5.25 -19.109375 L 5.25 -15.8125 C 5.851562 -17.007812 6.710938 -17.914062 7.828125 -18.53125 C 8.953125 -19.144531 10.203125 -19.453125 11.578125 -19.453125 C 13.234375 -19.453125 14.6875 -19.054688 15.9375 -18.265625 C 17.1875 -17.472656 18.09375 -16.304688 18.65625 -14.765625 C 19.164062 -16.285156 20.046875 -17.445312 21.296875 -18.25 C 22.546875 -19.050781 23.960938 -19.453125 25.546875 -19.453125 Z M 25.546875 -19.453125 "/></g></g></g><g fill="#ffffff" fill-opacity="1"><g transform="translate(421.143799, 476.899196)"><g><path d="M 1.6875 -9.59375 C 1.6875 -11.550781 2.078125 -13.269531 2.859375 -14.75 C 3.640625 -16.226562 4.722656 -17.367188 6.109375 -18.171875 C 7.492188 -18.984375 9.0625 -19.390625 10.8125 -19.390625 C 12.632812 -19.390625 14.203125 -18.96875 15.515625 -18.125 C 16.835938 -17.289062 17.789062 -16.21875 18.375 -14.90625 L 18.375 -19.109375 L 20.828125 -19.109375 L 20.828125 0 L 18.375 0 L 18.375 -4.234375 C 17.769531 -2.929688 16.804688 -1.851562 15.484375 -1 C 14.171875 -0.144531 12.601562 0.28125 10.78125 0.28125 C 9.050781 0.28125 7.492188 -0.125 6.109375 -0.9375 C 4.722656 -1.757812 3.640625 -2.914062 2.859375 -4.40625 C 2.078125 -5.90625 1.6875 -7.632812 1.6875 -9.59375 Z M 18.375 -9.5625 C 18.375 -11.09375 18.054688 -12.441406 17.421875 -13.609375 C 16.796875 -14.773438 15.941406 -15.671875 14.859375 -16.296875 C 13.773438 -16.929688 12.578125 -17.25 11.265625 -17.25 C 9.910156 -17.25 8.695312 -16.945312 7.625 -16.34375 C 6.550781 -15.738281 5.707031 -14.859375 5.09375 -13.703125 C 4.476562 -12.546875 4.171875 -11.175781 4.171875 -9.59375 C 4.171875 -8.03125 4.476562 -6.65625 5.09375 -5.46875 C 5.707031 -4.289062 6.550781 -3.394531 7.625 -2.78125 C 8.695312 -2.164062 9.910156 -1.859375 11.265625 -1.859375 C 12.578125 -1.859375 13.773438 -2.171875 14.859375 -2.796875 C 15.941406 -3.429688 16.796875 -4.332031 17.421875 -5.5 C 18.054688 -6.664062 18.375 -8.019531 18.375 -9.5625 Z M 18.375 -9.5625 "/></g></g></g><g fill="#ffffff" fill-opacity="1"><g transform="translate(447.493453, 476.899196)"><g/></g></g><g fill="#ffffff" fill-opacity="1"><g transform="translate(459.8113, 476.899196)"><g><path d="M 13.796875 0.25 C 11.523438 0.25 9.46875 -0.28125 7.625 -1.34375 C 5.78125 -2.40625 4.328125 -3.882812 3.265625 -5.78125 C 2.210938 -7.6875 1.6875 -9.84375 1.6875 -12.25 C 1.6875 -14.65625 2.210938 -16.804688 3.265625 -18.703125 C 4.328125 -20.609375 5.78125 -22.09375 7.625 -23.15625 C 9.46875 -24.21875 11.523438 -24.75 13.796875 -24.75 C 16.078125 -24.75 18.140625 -24.21875 19.984375 -23.15625 C 21.828125 -22.09375 23.273438 -20.609375 24.328125 -18.703125 C 25.378906 -16.804688 25.90625 -14.65625 25.90625 -12.25 C 25.90625 -9.84375 25.378906 -7.6875 24.328125 -5.78125 C 23.273438 -3.882812 21.828125 -2.40625 19.984375 -1.34375 C 18.140625 -0.28125 16.078125 0.25 13.796875 0.25 Z M 13.796875 -1.890625 C 15.609375 -1.890625 17.238281 -2.304688 18.6875 -3.140625 C 20.132812 -3.984375 21.273438 -5.191406 22.109375 -6.765625 C 22.953125 -8.347656 23.375 -10.175781 23.375 -12.25 C 23.375 -14.320312 22.953125 -16.140625 22.109375 -17.703125 C 21.273438 -19.273438 20.132812 -20.476562 18.6875 -21.3125 C 17.238281 -22.15625 15.609375 -22.578125 13.796875 -22.578125 C 11.972656 -22.578125 10.335938 -22.15625 8.890625 -21.3125 C 7.441406 -20.476562 6.296875 -19.273438 5.453125 -17.703125 C 4.617188 -16.140625 4.203125 -14.320312 4.203125 -12.25 C 4.203125 -10.175781 4.617188 -8.347656 5.453125 -6.765625 C 6.296875 -5.191406 7.441406 -3.984375 8.890625 -3.140625 C 10.335938 -2.304688 11.972656 -1.890625 13.796875 -1.890625 Z M 13.796875 -1.890625 "/></g></g></g><g fill="#ffffff" fill-opacity="1"><g transform="translate(490.115071, 476.899196)"><g><path d="M 11.765625 -19.453125 C 14.046875 -19.453125 15.910156 -18.742188 17.359375 -17.328125 C 18.804688 -15.921875 19.53125 -13.878906 19.53125 -11.203125 L 19.53125 0 L 17.109375 0 L 17.109375 -10.921875 C 17.109375 -12.992188 16.585938 -14.578125 15.546875 -15.671875 C 14.515625 -16.773438 13.101562 -17.328125 11.3125 -17.328125 C 9.46875 -17.328125 7.992188 -16.742188 6.890625 -15.578125 C 5.796875 -14.410156 5.25 -12.695312 5.25 -10.4375 L 5.25 0 L 2.796875 0 L 2.796875 -19.109375 L 5.25 -19.109375 L 5.25 -15.859375 C 5.851562 -17.023438 6.726562 -17.914062 7.875 -18.53125 C 9.019531 -19.144531 10.316406 -19.453125 11.765625 -19.453125 Z M 11.765625 -19.453125 "/></g></g></g><g fill="#ffffff" fill-opacity="1"><g transform="translate(514.995051, 476.899196)"><g><path d="M 5.25 -25.90625 L 5.25 0 L 2.796875 0 L 2.796875 -25.90625 Z M 5.25 -25.90625 "/></g></g></g><g fill="#ffffff" fill-opacity="1"><g transform="translate(525.73826, 476.899196)"><g><path d="M 4.03125 -22.71875 C 3.539062 -22.71875 3.117188 -22.890625 2.765625 -23.234375 C 2.410156 -23.585938 2.234375 -24.019531 2.234375 -24.53125 C 2.234375 -25.050781 2.410156 -25.476562 2.765625 -25.8125 C 3.117188 -26.144531 3.539062 -26.3125 4.03125 -26.3125 C 4.519531 -26.3125 4.9375 -26.144531 5.28125 -25.8125 C 5.632812 -25.476562 5.8125 -25.050781 5.8125 -24.53125 C 5.8125 -24.019531 5.632812 -23.585938 5.28125 -23.234375 C 4.9375 -22.890625 4.519531 -22.71875 4.03125 -22.71875 Z M 5.25 -19.109375 L 5.25 0 L 2.796875 0 L 2.796875 -19.109375 Z M 5.25 -19.109375 "/></g></g></g><g fill="#ffffff" fill-opacity="1"><g transform="translate(536.481424, 476.899196)"><g><path d="M 11.765625 -19.453125 C 14.046875 -19.453125 15.910156 -18.742188 17.359375 -17.328125 C 18.804688 -15.921875 19.53125 -13.878906 19.53125 -11.203125 L 19.53125 0 L 17.109375 0 L 17.109375 -10.921875 C 17.109375 -12.992188 16.585938 -14.578125 15.546875 -15.671875 C 14.515625 -16.773438 13.101562 -17.328125 11.3125 -17.328125 C 9.46875 -17.328125 7.992188 -16.742188 6.890625 -15.578125 C 5.796875 -14.410156 5.25 -12.695312 5.25 -10.4375 L 5.25 0 L 2.796875 0 L 2.796875 -19.109375 L 5.25 -19.109375 L 5.25 -15.859375 C 5.851562 -17.023438 6.726562 -17.914062 7.875 -18.53125 C 9.019531 -19.144531 10.316406 -19.453125 11.765625 -19.453125 Z M 11.765625 -19.453125 "/></g></g></g><g fill="#ffffff" fill-opacity="1"><g transform="translate(561.361428, 476.899196)"><g><path d="M 20.09375 -10.53125 C 20.09375 -9.695312 20.066406 -9.054688 20.015625 -8.609375 L 4.171875 -8.609375 C 4.234375 -7.160156 4.578125 -5.921875 5.203125 -4.890625 C 5.835938 -3.867188 6.664062 -3.09375 7.6875 -2.5625 C 8.71875 -2.039062 9.84375 -1.78125 11.0625 -1.78125 C 12.644531 -1.78125 13.976562 -2.164062 15.0625 -2.9375 C 16.144531 -3.707031 16.863281 -4.75 17.21875 -6.0625 L 19.8125 -6.0625 C 19.34375 -4.1875 18.34375 -2.660156 16.8125 -1.484375 C 15.289062 -0.304688 13.375 0.28125 11.0625 0.28125 C 9.257812 0.28125 7.644531 -0.117188 6.21875 -0.921875 C 4.800781 -1.734375 3.691406 -2.878906 2.890625 -4.359375 C 2.085938 -5.835938 1.6875 -7.570312 1.6875 -9.5625 C 1.6875 -11.539062 2.082031 -13.273438 2.875 -14.765625 C 3.664062 -16.265625 4.769531 -17.410156 6.1875 -18.203125 C 7.613281 -18.992188 9.238281 -19.390625 11.0625 -19.390625 C 12.882812 -19.390625 14.476562 -18.992188 15.84375 -18.203125 C 17.207031 -17.410156 18.253906 -16.34375 18.984375 -15 C 19.722656 -13.65625 20.09375 -12.164062 20.09375 -10.53125 Z M 17.609375 -10.609375 C 17.628906 -12.023438 17.34375 -13.234375 16.75 -14.234375 C 16.15625 -15.242188 15.34375 -16.003906 14.3125 -16.515625 C 13.289062 -17.035156 12.171875 -17.296875 10.953125 -17.296875 C 9.128906 -17.296875 7.578125 -16.710938 6.296875 -15.546875 C 5.015625 -14.378906 4.304688 -12.734375 4.171875 -10.609375 Z M 17.609375 -10.609375 "/></g></g></g></svg>